<?xml version="1.0" encoding="iso-8859-1"?>
<!-- Generator: Adobe Illustrator 19.0.0, SVG Export Plug-In . SVG Version: 6.00 Build 0)  -->
<svg version="1.1" id="Layer_1" xmlns="http://www.w3.org/2000/svg" xmlns:xlink="http://www.w3.org/1999/xlink" x="0px" y="0px"
	 viewBox="0 0 512 512" style="enable-background:new 0 0 512 512;" xml:space="preserve">
<path style="fill:#FF507D;" d="M410.102,118.996c-0.1-4.65-3.898-8.365-8.549-8.365H315.86h-34.208H110.447
	c-4.651,0-8.449,3.717-8.549,8.365l-8.179,376.25c-0.105,4.794,3.754,8.737,8.549,8.737h307.465c4.795,0,8.654-3.942,8.549-8.737
	L410.102,118.996z"/>
<path style="fill:#D23C69;" d="M240.777,469.779c-52.75,0-95.187-43.37-94.04-96.107l5.719-263.041h-42.009
	c-4.651,0-8.449,3.717-8.549,8.365l-8.179,376.25c-0.105,4.794,3.754,8.737,8.549,8.737h307.465c4.795,0,8.654-3.943,8.549-8.737
	l-0.554-25.467H240.777z"/>
<g>
	<circle style="fill:#FFDC64;" cx="196.142" cy="161.937" r="17.102"/>
	<circle style="fill:#FFDC64;" cx="315.858" cy="161.937" r="17.102"/>
</g>
<path d="M418.117,118.822c-0.193-8.938-7.624-16.209-16.564-16.209h-77.679V67.875C323.875,30.449,293.426,0,256,0
	s-67.875,30.449-67.875,67.875v34.739h-77.679c-8.939,0-16.37,7.271-16.564,16.208l-8.179,376.251
	c-0.098,4.493,1.579,8.735,4.721,11.947c3.143,3.212,7.349,4.981,11.842,4.981h307.465c4.494,0,8.7-1.769,11.842-4.981
	c3.143-3.212,4.82-7.456,4.721-11.947L418.117,118.822z M315.858,152.852c5.01,0,9.086,4.076,9.086,9.086s-4.076,9.086-9.086,9.086
	s-9.086-4.076-9.086-9.086S310.848,152.852,315.858,152.852z M410.115,495.806c-0.157,0.16-0.326,0.16-0.382,0.16H102.267
	c-0.056,0-0.224,0-0.382-0.16c-0.157-0.16-0.154-0.329-0.153-0.385l8.179-376.251c0.006-0.289,0.246-0.523,0.534-0.523h77.679v19.49
	c-9.93,3.354-17.102,12.752-17.102,23.8c0,13.851,11.268,25.119,25.119,25.119c13.851,0,25.119-11.268,25.119-25.119
	c0-11.048-7.172-20.446-17.102-23.8v-19.491h77.494c4.427,0,8.017-3.589,8.017-8.017c0-4.427-3.589-8.017-8.017-8.017h-77.494
	V67.875c0-28.585,23.256-51.841,51.841-51.841c28.585,0,51.841,23.256,51.841,51.841v70.263c-9.93,3.354-17.102,12.752-17.102,23.8
	c0,13.851,11.268,25.119,25.119,25.119c13.851,0,25.119-11.268,25.119-25.119c0-11.048-7.172-20.446-17.102-23.8v-19.49h77.679
	c0.289,0,0.528,0.234,0.534,0.523l8.179,376.251C410.268,495.477,410.272,495.646,410.115,495.806z M196.142,152.852
	c5.01,0,9.086,4.076,9.086,9.086s-4.076,9.086-9.086,9.086c-5.01,0-9.086-4.076-9.086-9.086S191.132,152.852,196.142,152.852z"/>
<path d="M384.267,461.762h-17.105c-4.427,0-8.017,3.589-8.017,8.017s3.589,8.017,8.017,8.017h17.105
	c4.427,0,8.017-3.589,8.017-8.017S388.695,461.762,384.267,461.762z"/>
<path d="M332.96,461.762H127.733c-4.427,0-8.017,3.589-8.017,8.017s3.589,8.017,8.017,8.017H332.96c4.427,0,8.017-3.589,8.017-8.017
	S337.389,461.762,332.96,461.762z"/>
<path d="M173.371,407.038c1.565,1.565,3.617,2.348,5.668,2.348c2.051,0,4.103-0.782,5.668-2.348l153.921-153.921
	c3.131-3.131,3.131-8.207,0-11.337c-3.131-3.131-8.207-3.131-11.337,0L173.371,395.701
	C170.241,398.831,170.241,403.908,173.371,407.038z"/>
<path d="M204.693,315.324c23.281,0,42.221-18.941,42.221-42.221c0-23.28-18.941-42.221-42.221-42.221s-42.221,18.941-42.221,42.221
	C162.472,296.383,181.413,315.324,204.693,315.324z M204.693,246.914c14.44,0,26.188,11.748,26.188,26.188
	c0,14.44-11.748,26.188-26.188,26.188c-14.44,0-26.188-11.748-26.188-26.188C178.505,258.663,190.253,246.914,204.693,246.914z"/>
<path d="M307.307,333.495c-23.28,0-42.221,18.941-42.221,42.221c0,23.28,18.941,42.221,42.221,42.221
	c23.281,0,42.221-18.941,42.221-42.221C349.528,352.436,330.587,333.495,307.307,333.495z M307.307,401.904
	c-14.44,0-26.188-11.748-26.188-26.188c0-14.44,11.748-26.188,26.188-26.188c14.44,0,26.188,11.748,26.188,26.188
	C333.495,390.156,321.747,401.904,307.307,401.904z"/>
<g>
</g>
<g>
</g>
<g>
</g>
<g>
</g>
<g>
</g>
<g>
</g>
<g>
</g>
<g>
</g>
<g>
</g>
<g>
</g>
<g>
</g>
<g>
</g>
<g>
</g>
<g>
</g>
<g>
</g>
</svg>
